<svg id="Слой_1" data-name="Слой 1" xmlns="http://www.w3.org/2000/svg" viewBox="0 0 868.62 982.68"><polygon points="399.12 711.61 234.75 426.93 0 291.39 0 752.25 399.12 982.68 399.12 711.61"/><path d="M434.31,81.28,692.64,230.43,579.81,295.57h-291L176,230.43,434.31,81.28m0-81.28L35.2,230.43,270,366H598.67L833.43,230.43,434.31,0Z"/><polygon points="434.31 121.92 246.38 230.43 298.24 260.38 570.38 260.38 622.25 230.43 434.31 121.92"/><polygon points="868.62 291.39 633.87 426.93 600.96 483.93 868.62 329.39 868.62 291.39"/><polygon points="868.62 341.55 590.43 502.16 555.24 563.12 868.62 382.19 868.62 341.55"/><polygon points="868.62 394.34 544.71 581.35 509.51 642.32 868.62 434.98 868.62 394.34"/><polygon points="868.62 447.14 498.99 660.54 469.51 711.61 469.51 718.21 868.62 487.78 868.62 447.14"/><polygon points="868.62 499.93 469.51 730.36 469.51 771 868.62 540.57 868.62 499.93"/><polygon points="868.62 552.73 469.51 783.16 469.51 823.8 868.62 593.37 868.62 552.73"/><polygon points="868.62 605.52 469.51 835.95 469.51 876.59 868.62 646.16 868.62 605.52"/><polygon points="868.62 658.32 469.51 888.75 469.51 929.39 868.62 698.96 868.62 658.32"/><polygon points="868.62 711.11 469.51 941.54 469.51 982.18 868.62 751.75 868.62 711.11"/><polygon points="547.14 436.36 321.48 436.36 387.94 551.47 399.12 570.82 399.12 570.82 434.31 631.78 547.14 436.36"/></svg>